<svg version="1.1" id="Layer_1" xmlns="http://www.w3.org/2000/svg" xmlns:xlink="http://www.w3.org/1999/xlink" x="0px" y="0px"
	 width="100%" viewBox="0 0 1024 1024" enable-background="new 0 0 1024 1024" xml:space="preserve">
<path fill="#020709" opacity="1.000000" stroke="none" 
	d="
M482.000000,1025.000000 
	C321.333344,1025.000000 161.166672,1025.000000 1.000000,1025.000000 
	C1.000000,683.666687 1.000000,342.333344 1.000000,1.000000 
	C342.333344,1.000000 683.666687,1.000000 1025.000000,1.000000 
	C1025.000000,342.333344 1025.000000,683.666687 1025.000000,1025.000000 
	C844.166687,1025.000000 663.333313,1025.000000 482.000000,1025.000000 
M433.394897,442.952454 
	C433.229370,443.305176 433.063843,443.657898 433.021515,443.794098 
	C433.021515,443.794098 432.805573,443.669922 432.256805,443.953796 
	C431.705994,444.562073 431.155182,445.170319 430.832581,445.805298 
	C430.832581,445.805298 430.855530,445.576660 430.392944,445.749146 
	C430.392944,445.749146 430.026245,446.079742 429.399170,446.339386 
	C425.862244,449.467865 422.303284,452.571869 418.792450,455.729309 
	C407.506592,465.879150 396.215118,476.022949 384.969727,486.217560 
	C372.274506,497.726440 359.626892,509.287811 346.403259,521.095947 
	C345.870667,521.710938 345.338104,522.325928 344.944702,522.936951 
	C344.944702,522.936951 344.939453,522.797791 344.372742,523.106506 
	C343.504547,524.048035 342.636383,524.989502 341.908173,526.059692 
	C341.908173,526.059692 342.037445,525.920288 341.389893,526.000183 
	C341.200134,526.323547 341.010376,526.646912 340.898285,526.811768 
	C340.898285,526.811768 340.739532,526.734558 340.085876,527.145020 
	C339.944977,531.764343 339.761902,536.382874 339.671295,541.003235 
	C339.422424,553.692322 339.136658,566.381775 339.077972,579.072144 
	C339.070190,580.753113 340.296661,582.439819 340.952118,584.026855 
	C340.952118,584.026855 340.855133,584.027039 341.227295,584.579956 
	C341.825745,584.770325 342.424164,584.960693 343.009430,584.989502 
	C343.009430,584.989502 342.847839,585.002319 342.831482,585.678772 
	C343.221008,585.834595 343.610535,585.990417 343.999939,586.000000 
	C343.999939,586.000000 343.853729,586.000366 343.858093,586.668518 
	C344.238281,586.828064 344.618439,586.987671 345.001099,587.001221 
	C345.001099,587.001221 344.855072,586.998962 344.866516,587.660034 
	C345.246613,587.818848 345.626740,587.977600 345.785614,587.949402 
	C345.785614,587.949402 345.597870,588.170044 345.899811,588.734131 
	C346.586975,589.222107 347.274139,589.710022 348.070221,590.061340 
	C348.070221,590.061340 347.934174,589.951721 348.049652,590.524170 
	C348.353088,590.758057 348.656494,590.992004 349.233002,591.824219 
	C403.599548,639.681824 457.966064,687.539429 512.469055,735.517151 
	C514.042297,734.285645 515.385132,733.336304 516.614136,732.257385 
	C536.227783,715.038635 555.845764,697.824707 575.424011,680.565735 
	C594.763550,663.517212 614.007812,646.360291 633.390198,629.360718 
	C650.876587,614.023926 668.493225,598.835571 686.747253,582.959900 
	C686.826843,564.294128 686.916809,545.628357 686.945068,526.962524 
	C686.946106,526.270752 686.344971,525.578064 685.840881,524.337524 
	C685.235229,523.890198 684.629578,523.442871 683.779785,522.566956 
	C683.575378,522.292847 683.309082,522.107544 682.667419,521.419983 
	C666.138428,506.738922 649.594116,492.075073 633.084290,477.372437 
	C611.559448,458.203705 590.057800,439.008881 568.554382,419.816071 
	C558.131409,410.513092 547.744568,401.169617 537.308899,391.881012 
	C529.419006,384.858307 521.477661,377.893463 513.506653,370.856415 
	C506.938202,376.643066 500.653687,382.072723 494.487915,387.634033 
	C482.272400,398.651917 470.122498,409.742554 457.395905,421.025208 
	C457.229614,421.352600 457.063293,421.680023 457.017700,422.006470 
	C457.017700,422.006470 457.016937,421.885742 456.376953,421.924103 
	C456.211914,422.283264 456.046875,422.642426 456.003418,423.007019 
	C456.003418,423.007019 456.009033,422.885437 455.345398,422.891083 
	C455.188049,423.261353 455.030731,423.631592 455.001129,424.003479 
	C455.001129,424.003479 455.002991,423.875732 454.333588,423.862000 
	C454.180969,424.242523 454.028351,424.623047 454.004120,425.007965 
	C454.004120,425.007965 454.008728,424.879547 453.330170,424.853760 
	C453.176392,425.235870 453.022614,425.617981 453.007996,426.006683 
	C453.007996,426.006683 453.014862,425.867523 452.386414,425.754669 
	C451.913300,426.167145 451.440155,426.579651 450.336823,427.139893 
	C448.865845,428.671417 447.394836,430.202942 445.396729,432.002136 
	C445.237488,432.343842 445.078247,432.685547 445.033020,432.885345 
	C445.033020,432.885345 444.891510,432.770844 444.358643,433.029968 
	C443.752533,433.543304 443.146454,434.056610 442.643341,434.916138 
	C442.643341,434.916138 442.989960,434.814484 442.325531,434.605774 
	C441.844452,435.059784 441.363403,435.513794 440.289398,436.198608 
	C438.834778,437.709076 437.380157,439.219543 435.392059,441.000183 
	C435.230072,441.339111 435.068085,441.678070 435.017059,442.017456 
	C435.017059,442.017456 435.017822,441.906464 434.402832,441.967133 
	C434.236633,442.316589 434.070404,442.666077 434.015930,443.017120 
	C434.015930,443.017120 434.017792,442.905396 433.394897,442.952454 
M615.259644,318.967896 
	C615.094666,318.749878 614.885864,318.588654 614.588684,318.295349 
	C614.588684,318.295349 614.396240,318.270538 613.999573,317.830170 
	C613.031555,317.144653 612.063477,316.459167 610.916809,315.371094 
	C610.725464,315.129120 610.477905,314.980988 609.913940,314.407776 
	C609.329346,313.914642 608.744690,313.421509 607.825806,312.337402 
	C576.398865,283.807373 544.971985,255.277344 513.504822,226.710815 
	C512.679810,227.329803 512.118225,227.683838 511.634583,228.123611 
	C477.872772,258.821320 444.120422,289.529480 410.358612,320.227173 
	C402.912689,326.997375 395.417023,333.712921 387.977142,340.489746 
	C379.982727,347.771637 371.971680,355.036865 364.070282,362.418884 
	C356.491302,369.499573 349.043457,376.720612 340.793884,383.895142 
	C340.499329,384.265839 340.204773,384.636566 340.009796,384.913422 
	C340.009796,384.913422 339.916107,384.813721 339.216827,385.354614 
	C339.216827,405.068329 339.216827,424.782013 339.216827,445.252106 
	C340.170929,444.006012 340.572571,443.481445 341.606079,442.733643 
	C348.609680,436.497986 355.645233,430.297760 362.608856,424.017731 
	C371.416992,416.074310 380.130432,408.025757 388.949432,400.094513 
	C404.093567,386.474854 419.308960,372.934448 434.454468,359.316315 
	C447.314087,347.753540 460.124207,336.135651 472.943268,324.527863 
	C482.192688,316.152435 491.459808,307.795898 500.640808,299.346039 
	C504.811676,295.507324 508.793274,291.462921 512.866272,287.506439 
	C528.143372,301.144989 542.703979,314.045776 557.156067,327.067017 
	C584.088684,351.333221 610.958923,375.668579 637.853333,399.977142 
	C645.932800,407.279755 653.960571,414.640442 662.105225,421.869598 
	C665.283447,424.690613 668.718384,427.222504 672.573669,430.194275 
	C673.368469,430.832336 674.163269,431.470398 675.174194,432.632874 
	C675.753296,433.102173 676.332336,433.571472 677.192505,434.654358 
	C680.470642,437.934387 683.748718,441.214417 687.587158,445.055115 
	C687.587158,437.116425 687.587158,430.513062 687.697876,423.021729 
	C687.612305,411.294281 687.570679,399.566162 687.379944,387.840424 
	C687.358521,386.523346 686.493835,385.219971 685.897461,383.454651 
	C685.715027,383.172882 685.458313,383.004059 684.760254,382.385437 
	C680.414795,378.437653 676.069336,374.489868 671.636047,370.307831 
	C671.636047,370.307831 671.393738,370.245667 671.009644,369.893188 
	C670.337891,369.809937 669.666138,369.726685 668.583740,368.991882 
	C668.183777,368.674347 667.783813,368.356812 667.109314,367.534241 
	C666.089600,366.646240 665.069946,365.758240 663.976196,364.424774 
	C663.976196,364.424774 663.800476,364.008789 663.761414,363.433929 
	C663.042969,362.807098 662.324585,362.180237 661.591187,361.434845 
	C661.591187,361.434845 661.471680,361.437866 661.194336,361.020935 
	C660.906677,360.856079 660.619019,360.691223 660.328003,360.750214 
	C660.328003,360.750214 660.378357,360.532074 660.026367,359.981750 
	C657.033142,357.297302 654.039978,354.612854 651.014771,351.992676 
	C651.014771,351.992676 651.074341,351.952545 650.829773,351.478577 
	C650.426453,351.129059 650.023071,350.779541 649.605530,350.275146 
	C649.605530,350.275146 649.450012,350.272003 649.103638,349.745148 
	C646.789673,347.767700 644.475708,345.790253 642.056396,343.952484 
	C642.056396,343.952484 642.185913,343.834778 641.874695,343.263275 
	C640.260315,341.825439 638.645935,340.387634 637.001343,338.998779 
	C637.001343,338.998779 637.050171,338.968445 636.721558,338.386017 
	C633.157837,335.241394 629.594177,332.096741 626.000427,328.999512 
	C626.000427,328.999512 626.048035,328.969635 625.795410,328.468933 
	C625.348999,328.130066 624.902588,327.791229 624.427307,327.426575 
	C624.427307,327.426575 624.414062,327.390198 624.048462,326.946747 
	C623.402283,326.544922 622.756042,326.143097 621.952576,325.337982 
	C621.769165,325.093811 621.526550,324.948669 620.924255,324.322937 
	C619.487671,323.059723 618.051147,321.796509 616.603333,320.427826 
	C616.603333,320.427826 616.497253,320.426819 616.287354,320.035889 
	C616.110962,319.788483 615.885498,319.599762 615.604126,319.321289 
	C615.604126,319.321289 615.455627,319.314819 615.259644,318.967896 
M339.920593,710.645325 
	C340.256409,710.914978 340.592194,711.184631 341.201263,712.029602 
	C361.533173,730.354492 381.876678,748.666504 402.193329,767.008301 
	C419.034424,782.212280 435.820465,797.477356 452.673798,812.667847 
	C470.766846,828.975647 488.940948,845.193604 507.012634,861.524902 
	C512.596130,866.570862 512.425354,866.603455 518.047119,861.578918 
	C543.581116,838.757874 569.153015,815.979248 594.720703,793.195984 
	C623.501587,767.549500 652.292664,741.914368 681.595032,715.993164 
	C681.829468,715.684509 682.063965,715.375854 682.699036,714.982544 
	C682.964172,714.832703 683.093872,714.605591 683.708313,713.939087 
	C686.986938,711.530457 688.289307,708.556641 688.102539,704.252380 
	C687.493347,690.213562 687.379761,676.152954 687.100281,662.100281 
	C687.042725,659.206299 687.091919,656.310181 687.091919,653.415100 
	C686.733582,653.163879 686.375305,652.912720 686.016968,652.661560 
	C685.288696,653.758301 684.560425,654.855103 683.394470,656.042908 
	C683.101318,656.195129 682.946716,656.436218 682.338745,657.072266 
	C680.713684,658.545044 679.088623,660.017883 677.563049,661.916443 
	C677.563049,661.916443 677.989258,661.819275 677.356934,661.643433 
	C676.917419,662.088013 676.477966,662.532532 675.389587,663.176331 
	C621.324585,710.836792 567.259583,758.497314 513.119324,806.224182 
	C491.958466,787.538452 471.331665,769.205627 450.571564,751.025024 
	C428.695496,731.867065 406.719788,712.822449 384.734436,693.789795 
	C370.423218,681.400635 356.017059,669.121155 341.100250,656.219177 
	C338.891479,654.307312 338.985779,655.895142 338.989624,657.562012 
	C339.012970,667.708435 339.004242,677.854919 338.384338,688.542725 
	C338.298401,691.354004 338.212463,694.165344 337.975189,697.878967 
	C338.018921,700.927917 338.062622,703.976807 338.010162,707.693176 
	C338.588409,708.575928 339.166687,709.458618 339.987976,710.239502 
	C339.987976,710.239502 339.887177,709.995972 339.920593,710.645325 
z"/>
<path fill="#00AEB4" opacity="1.000000" stroke="none" 
	d="
M346.958557,520.826355 
	C359.626892,509.287811 372.274506,497.726440 384.969727,486.217560 
	C396.215118,476.022949 407.506592,465.879150 418.792450,455.729309 
	C422.303284,452.571869 425.862244,449.467865 429.840149,446.208496 
	C430.522522,445.986420 430.713989,445.819427 430.855530,445.576660 
	C430.855530,445.576660 430.832581,445.805298 431.054810,445.729645 
	C431.786530,444.992615 432.296051,444.331268 432.805573,443.669922 
	C432.805573,443.669922 433.021515,443.794098 433.135529,443.705383 
	C433.505646,443.379608 433.761719,443.142517 434.017822,442.905396 
	C434.017792,442.905396 434.015930,443.017120 434.133209,442.817688 
	C434.506256,442.381012 434.762054,442.143738 435.017822,441.906464 
	C435.017822,441.906464 435.017059,442.017456 435.138245,441.807983 
	C435.481476,441.309052 435.703491,441.019531 435.925507,440.730011 
	C437.380157,439.219543 438.834778,437.709076 440.871948,435.983429 
	C441.966309,435.450348 442.478149,435.132416 442.989960,434.814484 
	C442.989960,434.814484 442.643341,434.916138 442.928833,434.731598 
	C443.773407,433.954987 444.332458,433.362915 444.891510,432.770844 
	C444.891510,432.770844 445.033020,432.885345 445.145538,432.743256 
	C445.480011,432.312286 445.701965,432.023407 445.923889,431.734497 
	C447.394836,430.202942 448.865845,428.671417 450.914764,426.932190 
	C452.000092,426.438812 452.507477,426.153168 453.014862,425.867523 
	C453.014862,425.867523 453.007996,426.006683 453.111755,425.798523 
	C453.479919,425.353424 453.744324,425.116486 454.008728,424.879547 
	C454.008728,424.879547 454.004120,425.007965 454.112152,424.802246 
	C454.481110,424.356293 454.742035,424.115997 455.002991,423.875732 
	C455.002991,423.875732 455.001129,424.003479 455.111145,423.799500 
	C455.483795,423.358826 455.746399,423.122101 456.009033,422.885437 
	C456.009033,422.885437 456.003418,423.007019 456.123505,422.804260 
	C456.501404,422.362946 456.759186,422.124359 457.016968,421.885742 
	C457.016937,421.885742 457.017700,422.006470 457.140503,421.813660 
	C457.490692,421.348267 457.718079,421.075714 457.945496,420.803162 
	C470.122498,409.742554 482.272400,398.651917 494.487915,387.634033 
	C500.653687,382.072723 506.938202,376.643066 513.506653,370.856415 
	C521.477661,377.893463 529.419006,384.858307 537.308899,391.881012 
	C547.744568,401.169617 558.131409,410.513092 568.554382,419.816071 
	C590.057800,439.008881 611.559448,458.203705 633.084290,477.372437 
	C649.594116,492.075073 666.138428,506.738922 682.837830,521.870300 
	C683.346802,522.545593 683.685364,522.770569 684.023926,522.995544 
	C684.629578,523.442871 685.235229,523.890198 685.913696,525.087280 
	C686.008484,545.085266 686.030457,564.333557 686.052429,583.581787 
	C668.493225,598.835571 650.876587,614.023926 633.390198,629.360718 
	C614.007812,646.360291 594.763550,663.517212 575.424011,680.565735 
	C555.845764,697.824707 536.227783,715.038635 516.614136,732.257385 
	C515.385132,733.336304 514.042297,734.285645 512.469055,735.517151 
	C457.966064,687.539429 403.599548,639.681824 348.895447,591.338623 
	C348.350006,590.552551 348.142090,590.252136 347.934174,589.951721 
	C347.934174,589.951721 348.070221,590.061340 347.895782,589.815552 
	C347.013519,589.103149 346.305695,588.636597 345.597900,588.170044 
	C345.597870,588.170044 345.785614,587.949402 345.713135,587.844360 
	C345.378815,587.492493 345.116943,587.245728 344.855072,586.998962 
	C344.855072,586.998962 345.001099,587.001221 344.826080,586.866577 
	C344.385284,586.488037 344.119507,586.244202 343.853729,586.000366 
	C343.853729,586.000366 343.999939,586.000000 343.824524,585.866211 
	C343.381989,585.489075 343.114929,585.245728 342.847839,585.002319 
	C342.847839,585.002319 343.009430,584.989502 342.776123,584.876343 
	C341.980286,584.517761 341.417725,584.272400 340.855133,584.027039 
	C340.855133,584.027039 340.952118,584.026855 340.902771,583.652771 
	C340.582886,580.653748 340.058899,578.026550 340.083191,575.404297 
	C340.233398,559.180420 340.506958,542.957703 340.739532,526.734558 
	C340.739532,526.734558 340.898285,526.811768 341.069885,526.724609 
	C341.506805,526.398376 341.772125,526.159302 342.037415,525.920288 
	C342.037445,525.920288 341.908173,526.059692 342.179932,525.922974 
	C343.280945,524.790100 344.110229,523.793945 344.939453,522.797791 
	C344.939453,522.797791 344.944702,522.936951 345.191162,522.855225 
	C345.944611,522.124451 346.451599,521.475403 346.958557,520.826355 
M471.001282,541.002258 
	C471.001282,541.002258 470.863495,541.003235 471.178406,540.562500 
	C471.451294,540.327881 471.724152,540.093262 471.993134,539.998901 
	C471.993134,539.998901 471.852905,539.994751 472.183533,539.564514 
	C472.456696,539.331970 472.729858,539.099426 472.651703,539.000488 
	C472.651703,539.000488 472.516174,538.649963 473.209045,538.590454 
	C473.776428,537.958679 474.343842,537.326843 475.159332,536.158020 
	C476.078918,535.431335 476.998505,534.704651 478.480804,533.773010 
	C478.983002,533.452942 479.485199,533.132935 479.996735,532.978577 
	C479.996735,532.978577 479.831024,532.987671 480.149750,532.541138 
	C480.429016,532.308777 480.708282,532.076416 480.710999,532.061340 
	C480.710999,532.061340 480.492584,531.785706 480.964417,531.482849 
	C481.299255,531.053406 481.634094,530.623962 482.463135,529.847900 
	C483.222595,529.208069 483.982056,528.568237 485.161926,527.581299 
	C485.449646,527.359192 485.737366,527.137024 486.022797,527.024170 
	C486.022797,527.024170 485.913483,527.022339 486.249237,526.621704 
	C486.505737,526.384521 486.762238,526.147278 487.010803,526.012573 
	C487.010803,526.012573 486.908203,526.005066 487.419464,525.598328 
	C487.789215,525.368347 488.158966,525.138306 488.443604,524.272156 
	C496.022522,517.430847 503.556946,510.538269 511.265961,503.846802 
	C511.874359,503.318726 514.092834,503.748749 514.896179,504.473053 
	C536.034485,523.531067 557.078003,542.694092 578.152832,561.822632 
	C588.966431,571.637512 599.808899,581.420471 610.974304,591.521790 
	C624.828491,579.385193 638.412781,567.484985 652.029480,555.556396 
	C605.682983,513.462341 559.550354,471.562622 513.350464,429.601746 
	C466.541107,471.876495 420.180237,513.746216 373.444275,555.954712 
	C387.079346,567.928040 400.374786,579.603149 413.868988,591.452759 
	C418.472626,587.618530 422.912354,584.192688 427.043427,580.428040 
	C438.438232,570.044006 449.703888,559.518311 461.444489,549.280029 
	C461.909973,548.758728 462.375488,548.237427 462.850372,547.843567 
	C462.850372,547.843567 462.722687,547.849854 463.368988,547.711487 
	C463.861237,547.052734 464.353455,546.393921 465.017242,545.844910 
	C465.017242,545.844910 464.908051,546.016907 465.245972,545.618225 
	C465.503723,545.382263 465.761475,545.146301 465.965942,545.062683 
	C465.965942,545.062683 465.813416,545.009949 466.216614,544.670898 
	C466.471588,544.428406 466.726562,544.185913 466.974091,544.008423 
	C466.974091,544.008423 466.911591,543.989197 467.444031,543.707703 
	C467.967316,543.425110 468.490631,543.142517 469.010284,543.005554 
	C469.010284,543.005554 468.864594,543.002197 469.191193,542.571228 
	C469.463074,542.338440 469.734985,542.105652 470.004944,542.007751 
	C470.004944,542.007751 469.870056,542.006042 470.188507,541.570312 
	C470.459198,541.335083 470.729858,541.099792 471.001282,541.002258 
M564.883362,633.359558 
	C569.063843,629.678406 573.244385,625.997253 577.972656,621.833740 
	C555.589294,601.348328 533.871033,581.471558 511.902649,561.365906 
	C490.229492,581.413757 468.974243,601.075073 447.370422,621.058777 
	C469.555603,640.608337 491.341705,659.806213 513.171143,679.042236 
	C522.032349,671.285828 530.559937,663.867493 539.035400,656.389954 
	C547.511108,648.912231 555.934631,641.375183 564.883362,633.359558 
z"/>
<path fill="#00AFB4" opacity="1.000000" stroke="none" 
	d="
M621.224731,324.902527 
	C621.526550,324.948669 621.769165,325.093811 622.143066,325.834534 
	C623.027039,326.684113 623.720581,327.037140 624.414062,327.390198 
	C624.414062,327.390198 624.427307,327.426575 624.562622,327.701721 
	C625.147949,328.307770 625.597961,328.638702 626.048035,328.969635 
	C626.048035,328.969635 626.000427,328.999512 626.046021,329.336792 
	C627.882874,334.967133 631.764526,337.795502 637.050171,338.968445 
	C637.050171,338.968445 637.001343,338.998779 637.049927,339.342651 
	C638.794250,341.069275 640.490112,342.452026 642.185913,343.834778 
	C642.185913,343.834778 642.056396,343.952484 642.121521,344.254608 
	C643.301270,348.122192 645.243713,350.635590 649.450012,350.272003 
	C649.450012,350.272003 649.605530,350.275146 649.702759,350.616730 
	C650.224792,351.289734 650.649597,351.621155 651.074341,351.952545 
	C651.074341,351.952545 651.014771,351.992676 651.058960,352.324280 
	C652.424011,357.366638 656.011902,359.407806 660.378357,360.532074 
	C660.378357,360.532074 660.328003,360.750214 660.480103,360.838348 
	C660.867371,361.170197 661.147217,361.340668 661.471680,361.437866 
	C661.471680,361.437866 661.591187,361.434845 661.593872,361.809143 
	C662.331177,362.791901 663.065857,363.400360 663.800476,364.008789 
	C663.800476,364.008789 663.976196,364.424774 664.078735,364.960632 
	C665.248840,366.344055 666.316345,367.191650 667.383911,368.039246 
	C667.783813,368.356812 668.183777,368.674347 668.971313,369.512573 
	C670.037170,370.104034 670.715454,370.174835 671.393738,370.245667 
	C671.393738,370.245667 671.636047,370.307831 671.622437,370.779175 
	C674.201050,377.361572 679.282166,380.596375 685.127380,382.948151 
	C685.458313,383.004059 685.715027,383.172882 685.940918,384.074402 
	C685.972229,385.478790 685.960083,386.263367 685.767456,387.344574 
	C685.699158,389.404846 685.811401,391.168518 685.941895,393.324158 
	C685.947693,394.500549 685.935242,395.284943 685.743469,396.375977 
	C682.929138,405.833618 684.896179,414.910492 686.001953,424.000610 
	C685.999939,424.000000 686.002441,423.993744 685.970703,424.358643 
	C684.412781,429.266205 682.183594,433.127625 676.911438,434.040741 
	C676.332336,433.571472 675.753296,433.102173 675.008057,432.079224 
	C673.906738,430.979095 672.971558,430.432587 672.036377,429.886078 
	C668.718384,427.222504 665.283447,424.690613 662.105225,421.869598 
	C653.960571,414.640442 645.932800,407.279755 637.853333,399.977142 
	C610.958923,375.668579 584.088684,351.333221 557.156067,327.067017 
	C542.703979,314.045776 528.143372,301.144989 512.866272,287.506439 
	C508.793274,291.462921 504.811676,295.507324 500.640808,299.346039 
	C491.459808,307.795898 482.192688,316.152435 472.943268,324.527863 
	C460.124207,336.135651 447.314087,347.753540 434.454468,359.316315 
	C419.308960,372.934448 404.093567,386.474854 388.949432,400.094513 
	C380.130432,408.025757 371.416992,416.074310 362.608856,424.017731 
	C355.645233,430.297760 348.609680,436.497986 341.127808,442.463745 
	C340.434265,440.058197 340.041779,437.923309 340.031769,435.786682 
	C339.952240,418.795868 339.945312,401.804749 339.916107,384.813721 
	C339.916107,384.813721 340.009796,384.913422 340.250610,384.801514 
	C340.840302,384.419739 341.189148,384.149872 341.537994,383.880005 
	C349.043457,376.720612 356.491302,369.499573 364.070282,362.418884 
	C371.971680,355.036865 379.982727,347.771637 387.977142,340.489746 
	C395.417023,333.712921 402.912689,326.997375 410.358612,320.227173 
	C444.120422,289.529480 477.872772,258.821320 511.634583,228.123611 
	C512.118225,227.683838 512.679810,227.329803 513.504822,226.710815 
	C544.971985,255.277344 576.398865,283.807373 607.878479,312.863464 
	C608.678833,313.901917 609.426514,314.414307 610.174194,314.926727 
	C610.477905,314.980988 610.725464,315.129120 611.005615,315.911316 
	C611.021545,319.188019 612.378418,319.329163 614.396240,318.270538 
	C614.396240,318.270538 614.588684,318.295349 614.692749,318.577942 
	C614.958496,319.095978 615.178101,319.247437 615.455627,319.314819 
	C615.455627,319.314819 615.604126,319.321289 615.698608,319.603424 
	C615.965820,320.146637 616.200562,320.327057 616.497253,320.426819 
	C616.497253,320.426819 616.603333,320.427826 616.574646,320.850037 
	C618.105530,322.482330 619.665100,323.692444 621.224731,324.902527 
z"/>
<path fill="#00AFB4" opacity="1.000000" stroke="none" 
	d="
M683.088196,714.301147 
	C683.093872,714.605591 682.964172,714.832703 682.291870,715.222412 
	C681.616272,715.732971 681.347778,716.003601 681.079285,716.274292 
	C652.292664,741.914368 623.501587,767.549500 594.720703,793.195984 
	C569.153015,815.979248 543.581116,838.757874 518.047119,861.578918 
	C512.425354,866.603455 512.596130,866.570862 507.012634,861.524902 
	C488.940948,845.193604 470.766846,828.975647 452.673798,812.667847 
	C435.820465,797.477356 419.034424,782.212280 402.193329,767.008301 
	C381.876678,748.666504 361.533173,730.354492 340.893555,711.495605 
	C340.352966,710.639709 340.120087,710.317871 339.887177,709.995972 
	C339.887177,709.995972 339.987976,710.239502 339.875305,709.962524 
	C339.210541,708.799011 338.658417,707.912415 338.106323,707.025757 
	C338.062622,703.976807 338.018921,700.927917 338.369080,697.242676 
	C339.145264,693.708069 339.527557,690.809814 339.920776,687.448547 
	C339.942932,678.893311 339.846619,670.798340 340.041992,662.710510 
	C340.089905,660.726074 341.090698,658.764587 341.653442,656.792542 
	C356.017059,669.121155 370.423218,681.400635 384.734436,693.789795 
	C406.719788,712.822449 428.695496,731.867065 450.571564,751.025024 
	C471.331665,769.205627 491.958466,787.538452 513.119324,806.224182 
	C567.259583,758.497314 621.324585,710.836792 675.968445,662.947266 
	C677.027954,662.418518 677.508606,662.118896 677.989258,661.819275 
	C677.989258,661.819275 677.563049,661.916443 677.886536,661.742188 
	C679.783569,659.967346 681.357178,658.366760 682.930725,656.766174 
	C682.946716,656.436218 683.101318,656.195129 683.959106,656.187195 
	C684.991638,658.172913 685.839600,660.009094 685.865356,661.856689 
	C686.027588,673.483337 686.040222,685.112549 686.033386,696.740906 
	C686.029907,702.746887 687.141968,708.964600 683.088196,714.301147 
z"/>
<path fill="#00A8B0" opacity="1.000000" stroke="none" 
	d="
M677.052002,434.347534 
	C682.183594,433.127625 684.412781,429.266205 686.236023,424.352722 
	C686.884460,423.957794 687.235840,423.933746 687.587158,423.909668 
	C687.587158,430.513062 687.587158,437.116425 687.587158,445.055115 
	C683.748718,441.214417 680.470642,437.934387 677.052002,434.347534 
z"/>
<path fill="#00C6CF" opacity="1.000000" stroke="none" 
	d="
M683.398254,714.120117 
	C687.141968,708.964600 686.029907,702.746887 686.033386,696.740906 
	C686.040222,685.112549 686.027588,673.483337 685.865356,661.856689 
	C685.839600,660.009094 684.991638,658.172913 684.177979,656.141663 
	C684.560425,654.855103 685.288696,653.758301 686.016968,652.661560 
	C686.375305,652.912720 686.733582,653.163879 687.091919,653.415100 
	C687.091919,656.310181 687.042725,659.206299 687.100281,662.100281 
	C687.379761,676.152954 687.493347,690.213562 688.102539,704.252380 
	C688.289307,708.556641 686.986938,711.530457 683.398254,714.120117 
z"/>
<path fill="#00D6DE" opacity="1.000000" stroke="none" 
	d="
M340.412720,526.939819 
	C340.506958,542.957703 340.233398,559.180420 340.083191,575.404297 
	C340.058899,578.026550 340.582886,580.653748 340.902466,583.701294 
	C340.296661,582.439819 339.070190,580.753113 339.077972,579.072144 
	C339.136658,566.381775 339.422424,553.692322 339.671295,541.003235 
	C339.761902,536.382874 339.944977,531.764343 340.412720,526.939819 
z"/>
<path fill="#00DFE6" opacity="1.000000" stroke="none" 
	d="
M339.566467,385.084167 
	C339.945312,401.804749 339.952240,418.795868 340.031769,435.786682 
	C340.041779,437.923309 340.434265,440.058197 340.811890,442.575378 
	C340.572571,443.481445 340.170929,444.006012 339.216827,445.252106 
	C339.216827,424.782013 339.216827,405.068329 339.566467,385.084167 
z"/>
<path fill="#00DBE5" opacity="1.000000" stroke="none" 
	d="
M686.399841,583.270874 
	C686.030457,564.333557 686.008484,545.085266 686.005493,525.361450 
	C686.344971,525.578064 686.946106,526.270752 686.945068,526.962524 
	C686.916809,545.628357 686.826843,564.294128 686.399841,583.270874 
z"/>
<path fill="#00D6DE" opacity="1.000000" stroke="none" 
	d="
M687.642517,423.465698 
	C687.235840,423.933746 686.884460,423.957794 686.267822,423.987793 
	C686.002441,423.993744 685.999939,424.000000 686.013550,423.531891 
	C685.992371,414.065643 685.957642,405.067505 685.922852,396.069366 
	C685.935242,395.284943 685.947693,394.500549 685.963562,392.905884 
	C685.960632,390.413055 685.954285,388.730530 685.947937,387.047974 
	C685.960083,386.263367 685.972229,385.478790 686.002319,384.302185 
	C686.493835,385.219971 687.358521,386.523346 687.379944,387.840424 
	C687.570679,399.566162 687.612305,411.294281 687.642517,423.465698 
z"/>
<path fill="#00A8B0" opacity="1.000000" stroke="none" 
	d="
M684.943848,382.666809 
	C679.282166,380.596375 674.201050,377.361572 671.666382,370.896301 
	C676.069336,374.489868 680.414795,378.437653 684.943848,382.666809 
z"/>
<path fill="#00E5EC" opacity="1.000000" stroke="none" 
	d="
M341.376831,656.505859 
	C341.090698,658.764587 340.089905,660.726074 340.041992,662.710510 
	C339.846619,670.798340 339.942932,678.893311 339.695282,687.472778 
	C339.458832,687.960022 339.006226,688.001343 339.006226,688.001343 
	C339.004242,677.854919 339.012970,667.708435 338.989624,657.562012 
	C338.985779,655.895142 338.891479,654.307312 341.376831,656.505859 
z"/>
<path fill="#00A8B0" opacity="1.000000" stroke="none" 
	d="
M636.885864,338.677246 
	C631.764526,337.795502 627.882874,334.967133 626.061035,329.313049 
	C629.594177,332.096741 633.157837,335.241394 636.885864,338.677246 
z"/>
<path fill="#00A8B0" opacity="1.000000" stroke="none" 
	d="
M660.202393,360.256897 
	C656.011902,359.407806 652.424011,357.366638 651.074951,352.292114 
	C654.039978,354.612854 657.033142,357.297302 660.202393,360.256897 
z"/>
<path fill="#00A8B0" opacity="1.000000" stroke="none" 
	d="
M649.276855,350.008575 
	C645.243713,350.635590 643.301270,348.122192 642.174194,344.184784 
	C644.475708,345.790253 646.789673,347.767700 649.276855,350.008575 
z"/>
<path fill="#00C6CF" opacity="1.000000" stroke="none" 
	d="
M338.695282,688.272034 
	C339.006226,688.001343 339.458832,687.960022 339.684326,687.935791 
	C339.527557,690.809814 339.145264,693.708069 338.444763,696.791504 
	C338.212463,694.165344 338.298401,691.354004 338.695282,688.272034 
z"/>
<path fill="#00C6CF" opacity="1.000000" stroke="none" 
	d="
M682.634766,656.919189 
	C681.357178,658.366760 679.783569,659.967346 677.836792,661.529297 
	C679.088623,660.017883 680.713684,658.545044 682.634766,656.919189 
z"/>
<path fill="#00A8B0" opacity="1.000000" stroke="none" 
	d="
M642.030273,343.549011 
	C640.490112,342.452026 638.794250,341.069275 637.064941,339.318176 
	C638.645935,340.387634 640.260315,341.825439 642.030273,343.549011 
z"/>
<path fill="#00A8B0" opacity="1.000000" stroke="none" 
	d="
M621.074463,324.612732 
	C619.665100,323.692444 618.105530,322.482330 616.580261,320.902771 
	C618.051147,321.796509 619.487671,323.059723 621.074463,324.612732 
z"/>
<path fill="#00A8B0" opacity="1.000000" stroke="none" 
	d="
M667.246582,367.786743 
	C666.316345,367.191650 665.248840,366.344055 664.115723,365.183350 
	C665.069946,365.758240 666.089600,366.646240 667.246582,367.786743 
z"/>
<path fill="#00A8B0" opacity="1.000000" stroke="none" 
	d="
M614.197876,318.050354 
	C612.378418,319.329163 611.021545,319.188019 611.094971,316.112610 
	C612.063477,316.459167 613.031555,317.144653 614.197876,318.050354 
z"/>
<path fill="#00A8B0" opacity="1.000000" stroke="none" 
	d="
M672.305054,430.040161 
	C672.971558,430.432587 673.906738,430.979095 674.900024,431.817017 
	C674.163269,431.470398 673.368469,430.832336 672.305054,430.040161 
z"/>
<path fill="#00D6DE" opacity="1.000000" stroke="none" 
	d="
M344.656128,522.952148 
	C344.110229,523.793945 343.280945,524.790100 342.109924,525.858643 
	C342.636383,524.989502 343.504547,524.048035 344.656128,522.952148 
z"/>
<path fill="#00A8B0" opacity="1.000000" stroke="none" 
	d="
M663.780945,363.721375 
	C663.065857,363.400360 662.331177,362.791901 661.601318,361.868439 
	C662.324585,362.180237 663.042969,362.807098 663.780945,363.721375 
z"/>
<path fill="#00C6CF" opacity="1.000000" stroke="none" 
	d="
M338.058228,707.359497 
	C338.658417,707.912415 339.210541,708.799011 339.753784,710.013489 
	C339.166687,709.458618 338.588409,708.575928 338.058228,707.359497 
z"/>
<path fill="#00A8B0" opacity="1.000000" stroke="none" 
	d="
M610.044067,314.667236 
	C609.426514,314.414307 608.678833,313.901917 608.045593,313.158936 
	C608.744690,313.421509 609.329346,313.914642 610.044067,314.667236 
z"/>
<path fill="#00D6DE" opacity="1.000000" stroke="none" 
	d="
M345.748840,588.452087 
	C346.305695,588.636597 347.013519,589.103149 347.841309,589.883789 
	C347.274139,589.710022 346.586975,589.222107 345.748840,588.452087 
z"/>
<path fill="#00D6DE" opacity="1.000000" stroke="none" 
	d="
M346.680908,520.961182 
	C346.451599,521.475403 345.944611,522.124451 345.121582,522.857178 
	C345.338104,522.325928 345.870667,521.710938 346.680908,520.961182 
z"/>
<path fill="#00C6CF" opacity="1.000000" stroke="none" 
	d="
M432.531189,443.811859 
	C432.296051,444.331268 431.786530,444.992615 430.940674,445.716278 
	C431.155182,445.170319 431.705994,444.562073 432.531189,443.811859 
z"/>
<path fill="#00C6CF" opacity="1.000000" stroke="none" 
	d="
M444.625061,432.900391 
	C444.332458,433.362915 443.773407,433.954987 442.877319,434.558502 
	C443.146454,434.056610 443.752533,433.543304 444.625061,432.900391 
z"/>
<path fill="#00A8B0" opacity="1.000000" stroke="none" 
	d="
M671.201660,370.069397 
	C670.715454,370.174835 670.037170,370.104034 669.176636,369.838348 
	C669.666138,369.726685 670.337891,369.809937 671.201660,370.069397 
z"/>
<path fill="#00A8B0" opacity="1.000000" stroke="none" 
	d="
M624.231262,327.168457 
	C623.720581,327.037140 623.027039,326.684113 622.221680,326.036133 
	C622.756042,326.143097 623.402283,326.544922 624.231262,327.168457 
z"/>
<path fill="#00C6CF" opacity="1.000000" stroke="none" 
	d="
M442.657745,434.710144 
	C442.478149,435.132416 441.966309,435.450348 441.168427,435.868042 
	C441.363403,435.513794 441.844452,435.059784 442.657745,434.710144 
z"/>
<path fill="#00DBE5" opacity="1.000000" stroke="none" 
	d="
M683.901855,522.781250 
	C683.685364,522.770569 683.346802,522.545593 682.994629,522.165894 
	C683.309082,522.107544 683.575378,522.292847 683.901855,522.781250 
z"/>
<path fill="#00C6CF" opacity="1.000000" stroke="none" 
	d="
M452.700623,425.811096 
	C452.507477,426.153168 452.000092,426.438812 451.229858,426.858337 
	C451.440155,426.579651 451.913300,426.167145 452.700623,425.811096 
z"/>
<path fill="#00C6CF" opacity="1.000000" stroke="none" 
	d="
M677.673096,661.731323 
	C677.508606,662.118896 677.027954,662.418518 676.292847,662.847656 
	C676.477966,662.532532 676.917419,662.088013 677.673096,661.731323 
z"/>
<path fill="#00A8B0" opacity="1.000000" stroke="none" 
	d="
M625.921753,328.719299 
	C625.597961,328.638702 625.147949,328.307770 624.577026,327.714600 
	C624.902588,327.791229 625.348999,328.130066 625.921753,328.719299 
z"/>
<path fill="#00A8B0" opacity="1.000000" stroke="none" 
	d="
M650.952026,351.715576 
	C650.649597,351.621155 650.224792,351.289734 649.709900,350.694153 
	C650.023071,350.779541 650.426453,351.129059 650.952026,351.715576 
z"/>
<path fill="#00D6DE" opacity="1.000000" stroke="none" 
	d="
M341.041199,584.303467 
	C341.417725,584.272400 341.980286,584.517761 342.782715,584.957092 
	C342.424164,584.960693 341.825745,584.770325 341.041199,584.303467 
z"/>
<path fill="#00D6DE" opacity="1.000000" stroke="none" 
	d="
M343.855896,586.334473 
	C344.119507,586.244202 344.385284,586.488037 344.824829,586.939575 
	C344.618439,586.987671 344.238281,586.828064 343.855896,586.334473 
z"/>
<path fill="#00A8B0" opacity="1.000000" stroke="none" 
	d="
M661.333008,361.229401 
	C661.147217,361.340668 660.867371,361.170197 660.481750,360.726440 
	C660.619019,360.691223 660.906677,360.856079 661.333008,361.229401 
z"/>
<path fill="#00D6DE" opacity="1.000000" stroke="none" 
	d="
M342.839661,585.340576 
	C343.114929,585.245728 343.381989,585.489075 343.824585,585.939331 
	C343.610535,585.990417 343.221008,585.834595 342.839661,585.340576 
z"/>
<path fill="#00DFE6" opacity="1.000000" stroke="none" 
	d="
M341.165955,383.887573 
	C341.189148,384.149872 340.840302,384.419739 340.200867,384.848450 
	C340.204773,384.636566 340.499329,384.265839 341.165955,383.887573 
z"/>
<path fill="#00C6CF" opacity="1.000000" stroke="none" 
	d="
M457.670715,420.914185 
	C457.718079,421.075714 457.490692,421.348267 457.080139,421.814148 
	C457.063293,421.680023 457.229614,421.352600 457.670715,420.914185 
z"/>
<path fill="#00C6CF" opacity="1.000000" stroke="none" 
	d="
M456.696960,421.904938 
	C456.759186,422.124359 456.501404,422.362946 456.062714,422.801575 
	C456.046875,422.642426 456.211914,422.283264 456.696960,421.904938 
z"/>
<path fill="#00D6DE" opacity="1.000000" stroke="none" 
	d="
M344.860779,587.329468 
	C345.116943,587.245728 345.378815,587.492493 345.823730,587.937866 
	C345.626740,587.977600 345.246613,587.818848 344.860779,587.329468 
z"/>
<path fill="#00D6DE" opacity="1.000000" stroke="none" 
	d="
M347.991913,590.237915 
	C348.142090,590.252136 348.350006,590.552551 348.758911,591.039429 
	C348.656494,590.992004 348.353088,590.758057 347.991913,590.237915 
z"/>
<path fill="#00A8B0" opacity="1.000000" stroke="none" 
	d="
M616.392334,320.231354 
	C616.200562,320.327057 615.965820,320.146637 615.702026,319.677673 
	C615.885498,319.599762 616.110962,319.788483 616.392334,320.231354 
z"/>
<path fill="#00A8B0" opacity="1.000000" stroke="none" 
	d="
M615.357666,319.141357 
	C615.178101,319.247437 614.958496,319.095978 614.714966,318.672363 
	C614.885864,318.588654 615.094666,318.749878 615.357666,319.141357 
z"/>
<path fill="#00C6CF" opacity="1.000000" stroke="none" 
	d="
M339.903870,710.320679 
	C340.120087,710.317871 340.352966,710.639709 340.756958,711.207947 
	C340.592194,711.184631 340.256409,710.914978 339.903870,710.320679 
z"/>
<path fill="#00C6CF" opacity="1.000000" stroke="none" 
	d="
M681.337158,716.133728 
	C681.347778,716.003601 681.616272,715.732971 682.091614,715.264771 
	C682.063965,715.375854 681.829468,715.684509 681.337158,716.133728 
z"/>
<path fill="#00C6CF" opacity="1.000000" stroke="none" 
	d="
M454.668274,423.868835 
	C454.742035,424.115997 454.481110,424.356293 454.047943,424.800049 
	C454.028351,424.623047 454.180969,424.242523 454.668274,423.868835 
z"/>
<path fill="#00C6CF" opacity="1.000000" stroke="none" 
	d="
M434.710327,441.936798 
	C434.762054,442.143738 434.506256,442.381012 434.077332,442.816925 
	C434.070404,442.666077 434.236633,442.316589 434.710327,441.936798 
z"/>
<path fill="#00C6CF" opacity="1.000000" stroke="none" 
	d="
M433.706360,442.928955 
	C433.761719,443.142517 433.505646,443.379608 433.073914,443.813660 
	C433.063843,443.657898 433.229370,443.305176 433.706360,442.928955 
z"/>
<path fill="#00C6CF" opacity="1.000000" stroke="none" 
	d="
M430.624237,445.662903 
	C430.713989,445.819427 430.522522,445.986420 430.153687,446.078674 
	C430.026245,446.079742 430.392944,445.749146 430.624237,445.662903 
z"/>
<path fill="#00C6CF" opacity="1.000000" stroke="none" 
	d="
M445.660339,431.868347 
	C445.701965,432.023407 445.480011,432.312286 445.088531,432.814209 
	C445.078247,432.685547 445.237488,432.343842 445.660339,431.868347 
z"/>
<path fill="#00C6CF" opacity="1.000000" stroke="none" 
	d="
M453.669434,424.866638 
	C453.744324,425.116486 453.479919,425.353424 453.042175,425.795227 
	C453.022614,425.617981 453.176392,425.235870 453.669434,424.866638 
z"/>
<path fill="#00D6DE" opacity="1.000000" stroke="none" 
	d="
M341.713654,525.960205 
	C341.772125,526.159302 341.506805,526.398376 341.031067,526.803833 
	C341.010376,526.646912 341.200134,526.323547 341.713654,525.960205 
z"/>
<path fill="#00C6CF" opacity="1.000000" stroke="none" 
	d="
M455.677185,422.888245 
	C455.746399,423.122101 455.483795,423.358826 455.047302,423.798706 
	C455.030731,423.631592 455.188049,423.261353 455.677185,422.888245 
z"/>
<path fill="#00C6CF" opacity="1.000000" stroke="none" 
	d="
M435.658783,440.865112 
	C435.703491,441.019531 435.481476,441.309052 435.082764,441.807800 
	C435.068085,441.678070 435.230072,441.339111 435.658783,440.865112 
z"/>
<path fill="#030709" opacity="1.000000" stroke="none" 
	d="
M484.741547,527.928406 
	C483.982056,528.568237 483.222595,529.208069 481.939331,530.093323 
	C481.107849,530.821045 480.800232,531.303406 480.492584,531.785706 
	C480.492584,531.785706 480.710999,532.061340 480.472107,531.892090 
	C480.099182,532.144470 479.965088,532.566101 479.830994,532.987671 
	C479.831024,532.987671 479.996735,532.978577 479.652222,532.792114 
	C478.844482,533.063110 478.381287,533.520508 477.918091,533.977966 
	C476.998505,534.704651 476.078918,535.431335 474.760010,536.569092 
	C473.745850,537.536804 473.131012,538.093384 472.516174,538.649963 
	C472.516174,538.649963 472.651703,539.000488 472.470978,538.899170 
	C472.144470,539.196838 471.998688,539.595764 471.852905,539.994751 
	C471.852905,539.994751 471.993134,539.998901 471.638794,539.890503 
	C471.144135,540.189209 471.003815,540.596191 470.863495,541.003235 
	C470.863495,541.003235 471.001282,541.002258 470.650085,540.902161 
	C470.155914,541.203369 470.013000,541.604736 469.870056,542.006042 
	C469.870056,542.006042 470.004944,542.007751 469.654938,541.911499 
	C469.158173,542.210876 469.011383,542.606567 468.864624,543.002197 
	C468.864594,543.002197 469.010284,543.005554 468.690063,542.861572 
	C467.883728,543.141418 467.397675,543.565308 466.911591,543.989197 
	C466.911591,543.989197 466.974091,544.008423 466.692261,544.032959 
	C466.211426,544.375000 466.012421,544.692444 465.813416,545.009949 
	C465.813416,545.009949 465.965942,545.062683 465.694611,545.032776 
	C465.251526,545.340881 465.079773,545.678894 464.908051,546.016907 
	C464.908051,546.016907 465.017242,545.844910 464.655334,545.924927 
	C463.769867,546.619873 463.246277,547.234863 462.722687,547.849854 
	C462.722687,547.849854 462.850372,547.843567 462.589661,547.903198 
	C461.892822,548.324829 461.456726,548.686707 461.020630,549.048584 
	C449.703888,559.518311 438.438232,570.044006 427.043427,580.428040 
	C422.912354,584.192688 418.472626,587.618530 413.868988,591.452759 
	C400.374786,579.603149 387.079346,567.928040 373.444275,555.954712 
	C420.180237,513.746216 466.541107,471.876495 513.350464,429.601746 
	C559.550354,471.562622 605.682983,513.462341 652.029480,555.556396 
	C638.412781,567.484985 624.828491,579.385193 610.974304,591.521790 
	C599.808899,581.420471 588.966431,571.637512 578.152832,561.822632 
	C557.078003,542.694092 536.034485,523.531067 514.896179,504.473053 
	C514.092834,503.748749 511.874359,503.318726 511.265961,503.846802 
	C503.556946,510.538269 496.022522,517.430847 488.106750,524.575928 
	C487.482697,525.254822 487.195465,525.629944 486.908203,526.005066 
	C486.908203,526.005066 487.010803,526.012573 486.719055,526.010010 
	C486.256073,526.345764 486.084778,526.684021 485.913483,527.022339 
	C485.913483,527.022339 486.022797,527.024170 485.731995,527.012085 
	C485.208008,527.309448 484.974792,527.618896 484.741547,527.928406 
z"/>
<path fill="#030709" opacity="1.000000" stroke="none" 
	d="
M564.632202,633.611816 
	C555.934631,641.375183 547.511108,648.912231 539.035400,656.389954 
	C530.559937,663.867493 522.032349,671.285828 513.171143,679.042236 
	C491.341705,659.806213 469.555603,640.608337 447.370422,621.058777 
	C468.974243,601.075073 490.229492,581.413757 511.902649,561.365906 
	C533.871033,581.471558 555.589294,601.348328 577.972656,621.833740 
	C573.244385,625.997253 569.063843,629.678406 564.632202,633.611816 
z"/>
<path fill="#00C6CF" opacity="1.000000" stroke="none" 
	d="
M461.232544,549.164307 
	C461.456726,548.686707 461.892822,548.324829 462.584961,547.839478 
	C462.375488,548.237427 461.909973,548.758728 461.232544,549.164307 
z"/>
<path fill="#00C6CF" opacity="1.000000" stroke="none" 
	d="
M463.045837,547.780640 
	C463.246277,547.234863 463.769867,546.619873 464.569580,545.869995 
	C464.353455,546.393921 463.861237,547.052734 463.045837,547.780640 
z"/>
<path fill="#00C6CF" opacity="1.000000" stroke="none" 
	d="
M472.862610,538.620239 
	C473.131012,538.093384 473.745850,537.536804 474.635956,536.837646 
	C474.343842,537.326843 473.776428,537.958679 472.862610,538.620239 
z"/>
<path fill="#00C6CF" opacity="1.000000" stroke="none" 
	d="
M478.199432,533.875488 
	C478.381287,533.520508 478.844482,533.063110 479.647552,532.709351 
	C479.485199,533.132935 478.983002,533.452942 478.199432,533.875488 
z"/>
<path fill="#00C6CF" opacity="1.000000" stroke="none" 
	d="
M467.177795,543.848450 
	C467.397675,543.565308 467.883728,543.141418 468.691895,542.788696 
	C468.490631,543.142517 467.967316,543.425110 467.177795,543.848450 
z"/>
<path fill="#00C6CF" opacity="1.000000" stroke="none" 
	d="
M480.728516,531.634277 
	C480.800232,531.303406 481.107849,530.821045 481.692230,530.266663 
	C481.634094,530.623962 481.299255,531.053406 480.728516,531.634277 
z"/>
<path fill="#00C6CF" opacity="1.000000" stroke="none" 
	d="
M469.027893,542.786743 
	C469.011383,542.606567 469.158173,542.210876 469.655914,541.843994 
	C469.734985,542.105652 469.463074,542.338440 469.027893,542.786743 
z"/>
<path fill="#00C6CF" opacity="1.000000" stroke="none" 
	d="
M487.163818,525.801697 
	C487.195465,525.629944 487.482697,525.254822 488.149292,524.893982 
	C488.158966,525.138306 487.789215,525.368347 487.163818,525.801697 
z"/>
<path fill="#00C6CF" opacity="1.000000" stroke="none" 
	d="
M486.081360,526.822021 
	C486.084778,526.684021 486.256073,526.345764 486.723022,525.958740 
	C486.762238,526.147278 486.505737,526.384521 486.081360,526.822021 
z"/>
<path fill="#00C6CF" opacity="1.000000" stroke="none" 
	d="
M465.077026,545.817566 
	C465.079773,545.678894 465.251526,545.340881 465.721252,544.956604 
	C465.761475,545.146301 465.503723,545.382263 465.077026,545.817566 
z"/>
<path fill="#00C6CF" opacity="1.000000" stroke="none" 
	d="
M484.951721,527.754883 
	C484.974792,527.618896 485.208008,527.309448 485.733154,526.957397 
	C485.737366,527.137024 485.449646,527.359192 484.951721,527.754883 
z"/>
<path fill="#00C6CF" opacity="1.000000" stroke="none" 
	d="
M479.990356,532.764404 
	C479.965088,532.566101 480.099182,532.144470 480.610413,531.783508 
	C480.708282,532.076416 480.429016,532.308777 479.990356,532.764404 
z"/>
<path fill="#00C6CF" opacity="1.000000" stroke="none" 
	d="
M472.018219,539.779663 
	C471.998688,539.595764 472.144470,539.196838 472.646637,538.832397 
	C472.729858,539.099426 472.456696,539.331970 472.018219,539.779663 
z"/>
<path fill="#00C6CF" opacity="1.000000" stroke="none" 
	d="
M471.020935,540.782837 
	C471.003815,540.596191 471.144135,540.189209 471.640747,539.820435 
	C471.724152,540.093262 471.451294,540.327881 471.020935,540.782837 
z"/>
<path fill="#00C6CF" opacity="1.000000" stroke="none" 
	d="
M470.029297,541.788208 
	C470.013000,541.604736 470.155914,541.203369 470.649689,540.833252 
	C470.729858,541.099792 470.459198,541.335083 470.029297,541.788208 
z"/>
<path fill="#00C6CF" opacity="1.000000" stroke="none" 
	d="
M466.015015,544.840454 
	C466.012421,544.692444 466.211426,544.375000 466.695984,544.000488 
	C466.726562,544.185913 466.471588,544.428406 466.015015,544.840454 
z"/>
<path fill="#00A8B0" opacity="1.000000" stroke="none" 
	d="
M685.743469,396.375977 
	C685.957642,405.067505 685.992371,414.065643 686.015564,423.532501 
	C684.896179,414.910492 682.929138,405.833618 685.743469,396.375977 
z"/>
<path fill="#00A8B0" opacity="1.000000" stroke="none" 
	d="
M685.767456,387.344574 
	C685.954285,388.730530 685.960632,390.413055 685.945312,392.513916 
	C685.811401,391.168518 685.699158,389.404846 685.767456,387.344574 
z"/>
</svg>